<?xml version="1.0" encoding="utf-8"?>
<svg version="1.1" id="Rackspace" xmlns="http://www.w3.org/2000/svg" xmlns:xlink="http://www.w3.org/1999/xlink" x="0px" y="0px"
	 viewBox="-105 339 400 117" style="enable-background:new -105 339 400 117;" xml:space="preserve">
<style type="text/css">
	.st0{fill:#414141;}
</style>
<path class="st0" d="M220.5,399c0-13.6,10.6-23.8,24.6-23.9c2.8,0,5.7,0.5,7.7,1.3c0,0,0,0,0,0l-1.7,9.1l-0.1,0
	c-1.7-1-3.7-1.4-6.1-1.4c-8,0-12.7,6.9-12.7,13.6c0,5.7,3.8,7.7,7.3,7.7c3.2,0,5.8-0.7,9.3-2.4l0.1-0.1l-1.8,9.4l0,0
	c-2.6,1.2-6.6,2-10.7,2C226.7,414.4,220.5,408.4,220.5,399z M203.9,413.6l0.4-1.8c0.3-1.5,1.5-3.6,2-4.3l0.1-0.1
	c0.2-0.4-0.1-0.8-0.4-0.9c-0.4-0.1-0.8,0-1,0.3l0,0.2c-0.2,0.8-0.6,2.7-2.4,4.2c-2.2,2-5.2,3.2-8.6,3.2c-7.4,0-10.8-6.6-10.8-13.2
	c0-7.5,2.9-14.9,7.9-19.9c4.1-4.1,9.5-6.3,15.4-6.3c4.5,0,7.9,1.3,10,3.9c3.1,3.8,2.9,9.4,2.1,13.6l-4,21.1H203.9z M204.3,383.6
	c-1.5,0-3.1,0.8-4.6,2.2c-3,3-5.3,8.7-5.2,13.2c0,3.9,1.5,6.4,4,6.4c4.1,0,7.6-4.3,8.8-10.5c0.3-1.4,0.5-2.8,0.7-4.1
	c0.2-1.2,0.3-2.4,0.3-3.1C208.2,385,206.8,383.6,204.3,383.6z M259.8,398l0.1,0.1c1,0.9,1.7,2.3,1.8,2.7c0.2,0.7,0.5,1.4,0.9,2
	c1.5,1.8,4,2.8,7.2,2.8c4.6,0,8.7-1.1,13-3.6l0.1-0.1l-1.8,9.4c-5.4,2.7-11.6,3-14,3c-10.4,0-16.4-5.8-16.4-15.9
	c0-5.8,2.1-11.7,5.9-16c4.1-4.8,9.8-7.4,16.1-7.4c7.9,0,13.1,4.6,13.1,11.4c0,3.1-1,5.7-3,7.7c-3.4,3.3-9.5,5-18.7,5
	c-2.2,0-2.7-1.1-3.1-1.9l-0.1-0.1c-0.2-0.3-0.7-0.2-1-0.1C259.7,397.3,259.6,397.7,259.8,398z M274.4,388.7c0.6-0.6,0.9-1.4,0.9-2.3
	c0-1.9-1.6-3.2-4-3.2c-3.7,0-6.4,2.3-7.8,5.1c-1,2-1.4,2.2-2.3,2.8l-0.1,0.1c-0.3,0.2-0.2,0.7,0,1c0.2,0.2,0.6,0.4,0.9,0.1l0.1-0.1
	c0.8-0.9,1-1.3,3.9-1.4C270.4,390.7,273.1,390,274.4,388.7z M161.4,378.5c2.5-2.2,5.7-3.4,8.9-3.4c7.4,0,12.2,5.6,12.2,14.4
	c0,9.2-4.4,18.6-12.3,22.8c-6.2,3.3-11.8,2.6-14.5,0.4c-0.7-0.5-0.8-1.9-0.9-2.4l0-0.1c-0.1-0.4-0.6-0.5-0.9-0.4
	c-0.3,0.1-0.6,0.5-0.5,0.8l0.1,0.1c0.5,0.9,0.9,1.6,0.8,2.4l-2.4,12.7h-11.2l9.5-50.1h9.9l-0.3,1.8c-0.5,2.7-1.3,3.8-1.9,4.4
	l-0.1,0.1c-0.2,0.3,0,0.7,0.3,0.9c0.3,0.1,0.8,0.2,1-0.2l0-0.1C159.2,381.7,159.8,379.8,161.4,378.5z M157.2,396.1
	c-0.5,2.5-1.8,9.9,3.4,9.9c5.9,0,10.2-8.4,10.2-15.7c0-1.8-0.4-6.1-4.5-6.1C162.1,384.2,158.6,388.9,157.2,396.1z M31.2,413.6
	l0.4-1.8c0.3-1.5,1.5-3.6,2-4.3l0.1-0.1c0.2-0.4-0.1-0.8-0.4-0.9c-0.4-0.1-0.8,0-0.9,0.3l-0.1,0.2c-0.2,0.8-0.6,2.7-2.4,4.2
	c-2.2,2-5.2,3.2-8.6,3.2c-7.4,0-10.8-6.6-10.8-13.2c0-7.5,2.9-14.9,7.9-19.9c4.1-4.1,9.5-6.3,15.4-6.3c4.5,0,7.9,1.3,10,3.9
	c3.1,3.8,2.9,9.4,2.1,13.6l-4,21.1H31.2z M31.6,383.6c-1.5,0-3.1,0.8-4.6,2.2c-3,3-5.3,8.7-5.2,13.2c0,3.9,1.5,6.4,4,6.4
	c4.1,0,7.6-4.3,8.8-10.5c0.3-1.4,0.5-2.8,0.7-4.1c0.2-1.2,0.3-2.4,0.3-3.1C35.5,385,34.1,383.6,31.6,383.6z M47.7,399
	c0-13.6,10.6-23.8,24.6-23.9c2.8,0,5.7,0.5,7.7,1.3c0,0,0,0,0.1,0l-1.7,9.1l-0.1,0c-1.7-1-3.7-1.4-6.1-1.4c-8,0-12.7,6.9-12.7,13.6
	c0,5.7,3.8,7.7,7.3,7.7c3.2,0,5.8-0.7,9.3-2.4l0.1-0.1l-1.8,9.4l0,0c-2.6,1.2-6.6,2-10.7,2C54,414.4,47.7,408.4,47.7,399z
	 M117.9,388.1c0-7.8,6.6-13,16.6-13.1c4.6,0,8,1,9.6,1.9l0,0l-1.6,8.5l-0.1,0c-1.9-1-5.1-2.1-8.5-2.1c-2.9,0-4.8,1.2-4.8,3.2
	c0,1.5,1.4,2.8,4.5,4.3c4,2,8.5,5,8.5,10.3c0,3.5-1.2,6.4-3.4,8.7c-3,3-8,4.7-13.9,4.6c-4.6-0.1-9.2-1.3-11.5-2.9l0,0l1.6-8.5l0.1,0
	c2.5,1.6,7.3,3.2,10.9,3.2c2.8,0,4.6-1.3,4.6-3.3c0-1.9-1.3-3.2-4.7-4.8C120.5,395.4,117.9,392.1,117.9,388.1z M3.2,379.4
	c2.6-2.9,5.7-4.4,9.1-4.4c0.7,0,1.5,0.1,2.1,0.2l-2.2,11c-0.4-0.1-1-0.2-1.8-0.2c-7.6,0-10.6,7.4-11.7,13.6L-3.9,414h-11.2l7.3-38.2
	H2l-0.5,2.6c-0.5,2.4-1.2,3.9-1.7,4.5l-0.1,0.1c-0.2,0.4,0.1,0.7,0.4,0.9c0.3,0.1,0.8,0.1,0.9-0.3l0.1-0.1
	C1.3,382.8,1.7,381.1,3.2,379.4z M290.5,405.4c-2.4,0-4.4,1.9-4.6,4.3c-0.2,2.3,1.5,4.1,3.8,4.1c2.4,0,4.5-1.9,4.7-4.3
	C294.5,407.3,292.8,405.4,290.5,405.4z M289.7,414.5c-2.7,0-4.7-2.2-4.4-4.9c0.2-2.7,2.6-4.9,5.3-4.9c2.7,0,4.7,2.2,4.4,4.9
	C294.7,412.3,292.4,414.5,289.7,414.5z M291.7,412.5h-0.8l-0.7-2.2l-0.5,0h0h-0.5l-0.4,2.2H288l1.1-5.7h1.2c0.3,0,0.5,0,0.7,0
	c0.2,0,0.4,0.1,0.5,0.1c0.6,0.2,1,0.7,1,1.3c0,0.1,0,0.2,0,0.3c-0.1,0.8-0.6,1.4-1.5,1.6L291.7,412.5z M290.8,407.5
	c-0.1,0-1.2,0-1.2,0l-0.4,2.2c0,0,1,0,1.2,0c0.2,0,0.3,0,0.4-0.1c0.5-0.1,0.9-0.5,1-1c0.1-0.5-0.1-0.8-0.6-1
	C291.1,407.5,291,407.5,290.8,407.5z M98.3,362.6L92.5,393l14.9-17.2h12.2l-15.4,17.4l9.4,20.4h-12l-9.1-20.2l-3.8,20.2H77.5l9.7-51
	L98.3,362.6L98.3,362.6z M-62,352c-16.5,20.3-23.5,46.6-22.6,70c-9.8-3.9-16.9-13.3-17.7-25.2l0-0.1c-1.2-21.2,15.7-42.8,37.7-48.4
	c8.6-2.2,16.7-1.6,23.4,1.2c-1.4,4-3.8,8.6-6.1,12c-4.9,7.2-11.9,11.8-15.7,10.2c-3.8-1.6-2.8-8.8,2-16.1c1.1-1.7,2.4-3.2,3.7-4.5
	C-58.8,351.3-60.4,351.6-62,352z M-60.4,361.5c-1.6,3.3-1,6.1,1.4,6.1c2.4,0,5.5-2.6,7.1-6c1.6-3.3,1-6.1-1.4-6.1
	C-55.6,355.5-58.8,358.1-60.4,361.5z M-55.9,339.1c18.5-1.1,33.1,10.9,34.2,29.5c1.2,21.1-15.6,42.8-37.6,48.4
	c-7.6,1.9-14.7,1.7-20.9-0.2c-0.5-8.3,1.2-17,4.8-23.1c5.8-9.9,14.6-9.1,19.7,1.9c1.9,4.1,3,9.1,3.3,14.2c1.8-0.9,3.5-2,5.1-3.1
	c-5.5-13.2-7.9-28.9,11.7-56.5c-5.7-4.5-14.4-6.8-25.3-5.3C-59.5,342.8-57.7,340.9-55.9,339.1z M-98.9,451.5L-98.9,451.5l0.4-2
	l-0.1,0c-0.7,0.3-1.3,0.4-2,0.4c-0.8,0-1.9-0.2-1.9-1.4c0-0.3,0-0.8,0-1l1.5-7.9h4.3l0.4-1.9h-4.3l0.8-4.2h-2.1l-0.8,4.2h-1.9
	l-0.4,1.9h1.9l-1.5,8c-0.1,0.5-0.1,1-0.1,1.5c0.1,1.7,1.5,2.8,3.6,2.8C-100.2,451.9-99.6,451.8-98.9,451.5z M-92.1,443.8
	c0.5-2.6,2.4-4.4,4.6-4.4c1.9,0,3.1,1.1,3.3,2.8c0,0.5,0,1.1-0.1,1.5l-1.5,7.9h2.1l1.4-7.7c0.2-0.9,0.2-1.6,0.2-2.1
	c-0.2-2.6-2.1-4.3-4.8-4.3c-2.2,0-3.5,1.2-4.5,2.4l1.5-7.8H-92l-3.7,19.6h2.2L-92.1,443.8z M-3.3,451.7l1.5-7.7l0-0.1
	c0.1-0.8,0.3-1.7,0.2-2.4c-0.2-2.6-2-4.3-4.6-4.3c-2.1,0-3.8,1-5,2.8c-0.7-1.8-2.2-2.8-4.1-2.8c-1.8,0-2.9,0.9-3.9,2l0.3-1.7h-3.3
	l-2.7,14.2h3.3l1.5-8c0.4-2.1,1.7-3.5,3.4-3.5c1.4,0,2.3,0.8,2.4,2.2c0,0.4,0,0.9-0.1,1.4l-1.5,7.9h3.3l1.5-8
	c0.4-2.1,1.7-3.5,3.4-3.5c1.4,0,2.3,0.8,2.4,2.2c0,0.4,0,0.9-0.1,1.4l-1.5,7.9L-3.3,451.7L-3.3,451.7z M27.4,451.7l1.4-7.7
	c0.1-0.8,0.3-1.7,0.2-2.5c-0.2-2.6-2-4.3-4.6-4.3c-1.8,0-3.1,1-4.1,2l0.3-1.7h-3.3l-2.7,14.2H18l1.5-8c0.4-2.1,1.8-3.5,3.5-3.5
	c1.5,0,2.5,0.8,2.6,2.2c0,0.4,0,1-0.1,1.4l-1.5,7.9L27.4,451.7L27.4,451.7z M113.4,449.7l-1.9-2.2c-1.2,1.1-2.2,1.6-3.4,1.6
	c-1.9,0-3.4-1.5-3.6-3.5c-0.1-1.5,0.4-3.1,1.4-4.2c0.8-0.9,1.9-1.4,2.9-1.4c1.9,0,2.8,1,3.6,2.1l2.4-1.8c-0.9-1.5-2.8-3.2-6-3.2
	c-2.1,0-4.2,0.9-5.7,2.5c-1.5,1.6-2.2,3.7-2,6c0.3,3.7,3.2,6.3,7,6.3C110.8,452,112.3,450.8,113.4,449.7z M118.7,451.7l3.7-19.6
	h-3.3l-3.7,19.6H118.7z M147.8,450l-0.3,1.7h3.3l2.7-14.2h-3.3l-1.5,8c-0.4,2.1-1.8,3.5-3.5,3.5c-1.5,0-2.4-0.8-2.6-2.2
	c0-0.4,0-1,0.1-1.4l1.5-7.9h-3.3l-1.5,7.7c-0.1,0.8-0.3,1.7-0.2,2.5c0.2,2.6,2,4.3,4.7,4.3C145.6,452,146.9,450.9,147.8,450z
	 M189.7,449.7l-1.4-1.4c-1.3,1.2-2.5,1.8-3.9,1.8c-2,0-4.2-1.4-4.4-4.2c-0.1-1.8,0.5-3.5,1.6-4.7c1-1.1,2.3-1.7,3.7-1.7
	c2.2,0,3.4,1.3,4.1,2.4l1.7-1.1c-0.7-1.2-2.4-3.2-5.8-3.2c-2,0-4,0.9-5.5,2.4c-1.5,1.6-2.2,3.8-2,6c0.3,4,3.6,6.1,6.6,6.1
	C186.4,452,188.1,451.2,189.7,449.7z M228,451.7l1.5-7.7c0-0.1,0-0.3,0.1-0.4c0.1-0.6,0.2-1.2,0.1-1.7c-0.2-2.6-2-4.3-4.6-4.3
	c-2.3,0-4.1,1-5.3,3c-0.6-1.9-2.2-3-4.2-3c-1.9,0-3.1,0.9-4.3,2.4l0.4-2.1h-2.1l-2.6,13.9h2.1l1.5-7.8c0.5-2.5,2.4-4.4,4.4-4.4
	c1.8,0,2.9,1.1,3,2.8c0,0.5,0,1.1-0.1,1.5l-1.5,7.9h2.2l1.5-7.8c0.5-2.5,2.4-4.4,4.4-4.4c1.8,0,2.9,1.1,3,2.8c0,0.4,0,1.1-0.1,1.5
	l-1.5,7.9H228z M274.3,451.7l1.4-7.7c0.2-0.9,0.2-1.6,0.2-2.1c-0.2-2.6-2.1-4.3-4.8-4.3c-2.2,0-3.5,1.2-4.5,2.4l0.4-2.1h-2.1
	l-2.6,13.9h2.1l1.5-7.8c0.5-2.6,2.4-4.4,4.6-4.4c1.9,0,3.1,1.1,3.3,2.8c0,0.5,0,1.1-0.1,1.5l-1.5,7.9H274.3z M283.4,452.1l8.4-14.3
	h-2.4l-6.5,11.4l-2.8-11.4l-2.2,0l3.6,13.8c-1.1,1.8-2.1,2.5-3.4,2.5c-0.7,0-1.6-0.3-2.1-0.7l-1.1,1.6c1,0.7,2,1,3.1,1
	C280.2,456,281.8,454.9,283.4,452.1z M-73.3,452c-3.7,0-6.3-2.4-6.6-5.9c-0.2-2.3,0.6-4.6,2.1-6.2c1.4-1.5,3.2-2.3,5.3-2.3
	c3.7,0,5.6,2.7,5.8,5.3c0.1,0.9,0,1.8-0.3,2.6c0,0,0,0,0,0h-10.8c0,0.2,0,0.3,0,0.5c0.2,2.5,1.9,4.1,4.4,4.1c1.8,0,3-0.7,4.1-1.6
	l1.2,1.4C-69.1,450.9-70.7,452-73.3,452z M-77.7,443.8h8.8c0.1-0.3,0.1-0.6,0-1c-0.1-1.7-1.2-3.5-3.7-3.5c-1.4,0-2.7,0.6-3.7,1.6
	C-76.9,441.7-77.4,442.7-77.7,443.8z M35,452c-2.5,0-4.4-1.6-4.6-3.9c-0.1-1.3,0.3-2.5,1.1-3.4c1.1-1.1,2.7-1.7,4.7-1.7
	c1.4,0,2.8,0.2,4.4,0.7l0.1-0.2c0.1-0.4,0.1-0.7,0.1-1.2c-0.1-1.4-1.2-2.1-3.2-2.1c-1.3,0-2.5,0.3-3.8,0.8l-0.8-2.7
	c1.6-0.6,3.2-0.9,5-0.9c3.7,0,5.8,1.6,6,4.4c0.1,0.7,0,1.3-0.1,2.1l-1.5,7.9h-3.2l0.3-1.7C38.2,451.3,36.8,452,35,452z M36.9,445.1
	c-1.1,0-2,0.3-2.6,0.9c-0.4,0.4-0.6,1-0.5,1.7c0.1,1.1,1,1.9,2.4,1.9c1.9,0,3.6-1.4,4-3.3l0.1-0.6C39.6,445.4,38.4,445.1,36.9,445.1
	z M52,456c-2.7,0-5.5-0.8-7.4-2.2l1.7-2.3c1.6,1.1,3.5,1.8,5.4,1.8c1.4,0,2.6-0.4,3.3-1.2c0.6-0.6,1-1.5,1.2-2.8l0.1-0.7
	c-1.5,1.4-2.8,2-4.6,2c-2.7,0-5.6-1.8-5.9-5.1c-0.2-2.2,0.5-4.3,2-5.9c1.4-1.5,3.2-2.3,5.2-2.3c2.7,0,4,1.4,4.8,2.7l0.4-2.4h3.3
	l-2.2,11.7c-0.5,2.5-1,3.7-2,4.8C56.2,455.4,54.4,456,52,456z M53.6,440c-1.2,0-2.3,0.5-3.1,1.4c-0.9,0.9-1.3,2.1-1.2,3.4
	c0.1,1.8,1.5,3,3.4,3c1.3,0,2.5-0.5,3.3-1.5c0.9-0.9,1.3-2,1.2-3.2C57,441.3,55.5,440,53.6,440z M69.6,452c-4,0-6.6-2.4-6.9-6.2
	c-0.2-2.2,0.6-4.5,2.1-6.2c1.4-1.6,3.4-2.4,5.6-2.4c1.7,0,3.2,0.6,4.3,1.6c1,1,1.6,2.4,1.8,3.9c0.1,1-0.1,2-0.4,3c0,0,0,0-0.1,0
	H65.8c0.2,2.2,1.6,3.5,3.9,3.5c1.3,0,2.3-0.4,3.5-1.4l1.8,2.1C73.5,451.3,71.7,452,69.6,452z M66,443.5h7.2c0.1-0.2,0.1-0.6,0.1-0.9
	c-0.1-1.7-1.2-2.7-3-2.7c-1.2,0-2.3,0.5-3.1,1.4C66.6,441.9,66.2,442.7,66,443.5z M129.9,452c-2,0-3.7-0.6-5-1.8
	c-1.3-1.2-2-2.8-2.2-4.6c-0.2-2.1,0.6-4.3,2-5.8c1.4-1.6,3.4-2.5,5.6-2.5c2,0,3.7,0.6,5,1.8c1.3,1.2,2,2.8,2.2,4.7
	c0.2,2.1-0.6,4.3-2,5.8C134,451.1,132,452,129.9,452z M130.3,440.1c-1.1,0-2.1,0.5-3,1.3c-0.9,1-1.5,2.6-1.4,4
	c0.2,2.3,1.6,3.7,3.8,3.7c1.1,0,2.2-0.5,3-1.3c0.9-1,1.5-2.6,1.4-4C134,441.5,132.5,440.1,130.3,440.1z M160.3,452
	c-1.6,0-3-0.6-4.1-1.6c-1.1-1.1-1.8-2.6-1.9-4.4c-0.2-2.5,0.5-4.7,2.1-6.4c1.4-1.5,3.2-2.3,5.1-2.3c2.1,0,3.8,0.9,4.9,2.7l1.5-7.8
	h3.3l-3.7,19.6h-3.3l0.3-1.8C163.3,451.3,161.9,452,160.3,452z M162.1,440.1c-1.1,0-2.2,0.5-3,1.3c-1,1.1-1.5,2.6-1.4,4.2
	c0.2,2.1,1.6,3.4,3.6,3.4c1.2,0,2.3-0.5,3.1-1.5c1-1.1,1.5-2.6,1.4-4.1C165.8,441.5,164.2,440.1,162.1,440.1z M198.5,452
	c-3.7,0-6.5-2.6-6.8-6.2c-0.2-2.1,0.6-4.3,2-5.8c1.5-1.6,3.4-2.4,5.5-2.4c3.7,0,6.5,2.6,6.8,6.2c0.2,2.1-0.6,4.2-2,5.9
	C202.6,451.1,200.6,452,198.5,452z M199.2,439.4c-1.4,0-2.7,0.6-3.8,1.7c-1.1,1.2-1.7,2.9-1.6,4.6c0.2,2.7,2,4.4,4.6,4.4
	c1.4,0,2.7-0.6,3.8-1.7c1.1-1.2,1.7-2.9,1.6-4.6C203.6,441.1,201.9,439.4,199.2,439.4z M230.1,455.9l3.4-18.1h2.1l-0.4,2.2
	c1.4-1.7,3-2.5,4.9-2.5c3.2,0,5.7,2.4,6,5.9c0.2,2.4-0.6,4.7-2.1,6.4c-1.3,1.5-3.1,2.3-5,2.3c-3,0-4.6-1.8-5.4-3.3l-1.4,7.3
	L230.1,455.9L230.1,455.9z M239.7,439.4c-1.4,0-2.9,0.7-3.9,1.8c-1.2,1.3-1.8,3-1.7,4.6c0.2,2.5,2.1,4.2,4.5,4.2
	c1.4,0,2.7-0.6,3.6-1.6c1.1-1.3,1.7-3.1,1.6-4.9C243.7,441.1,242,439.4,239.7,439.4z M258.7,451.7h-2.1l0.4-2
	c-1.3,1.5-2.9,2.3-4.9,2.3c-2.1,0-4.5-1.2-4.7-3.9c-0.1-1.3,0.3-2.4,1.1-3.3c1-1.1,2.7-1.7,4.7-1.7c1.5,0,3.1,0.2,4.9,0.7l0-0.3
	c0.1-0.4,0.1-0.9,0.1-1.3c-0.1-1.8-1.5-2.8-3.9-2.8c-1.6,0-2.8,0.4-3.8,0.7l-0.5-1.8c1.5-0.6,2.9-0.8,4.5-0.8c3.5,0,5.6,1.6,5.8,4.3
	c0,0.6,0,1.2-0.1,1.9L258.7,451.7z M253.4,444.7c-1.4,0-2.5,0.4-3.1,1.1c-0.5,0.5-0.8,1.2-0.7,2c0.1,1.5,1.3,2.4,3.1,2.4
	c2.4,0,4.6-1.8,5-4.1l0.2-0.9C256.5,444.9,254.9,444.7,253.4,444.7z M-48.9,451.7l0.9-4.7h-4.7l-0.9,4.7h-2.1l0.9-4.7h-3.5l0.4-2.1
	h3.5l1-5.5h-3.5l0.4-2.1h3.5l0.9-4.7h2.1l-0.9,4.7h4.7l0.9-4.7h2.1l-0.9,4.7h3.4l-0.4,2.1h-3.4l-1,5.5h3.4l-0.4,2.1h-3.4l-0.9,4.7
	H-48.9z M-52.3,444.9h4.7l1-5.5h-4.7L-52.3,444.9z M83.7,452c-1.6,0-3-0.6-4.1-1.6c-1.1-1.1-1.8-2.6-1.9-4.4
	c-0.2-2.5,0.6-4.7,2.1-6.4c1.4-1.5,3.2-2.3,5.1-2.3c2.1,0,3.8,0.9,4.9,2.7l1.5-7.8h3.3L91,451.7h-3.3l0.3-1.8
	C86.7,451.3,85.3,452,83.7,452z M85.5,440.1c-1.1,0-2.2,0.5-3,1.3c-1,1.1-1.5,2.6-1.4,4.2c0.2,2.1,1.6,3.4,3.6,3.4
	c1.2,0,2.3-0.5,3.1-1.5c1-1.1,1.5-2.6,1.4-4.1C89.2,441.5,87.6,440.1,85.5,440.1z M-35.5,451.7l3.7-19.6h-1.7l-4.9,1.6l0.2,1.9
	l3.7-1.1l-3.2,17.1L-35.5,451.7L-35.5,451.7z M4.4,452c-2.5,0-4.4-1.6-4.6-3.9c-0.1-1.3,0.3-2.5,1.1-3.4c1.1-1.1,2.7-1.7,4.7-1.7
	c1.4,0,2.8,0.2,4.4,0.7l0.1-0.2c0.1-0.4,0.1-0.7,0.1-1.2c-0.1-1.4-1.2-2.1-3.2-2.1c-1.3,0-2.5,0.3-3.8,0.8l-0.8-2.7
	c1.6-0.6,3.2-0.9,5-0.9c3.7,0,5.8,1.6,6,4.4c0.1,0.7,0,1.3-0.1,2.1l-1.5,7.9H8.5l0.3-1.7C7.6,451.3,6.1,452,4.4,452z M6.2,445.1
	c-1.1,0-2,0.3-2.6,0.9c-0.4,0.4-0.6,1-0.5,1.7c0.1,1.1,1,1.9,2.4,1.9c1.9,0,3.7-1.4,4-3.3l0.1-0.6C9,445.4,7.7,445.1,6.2,445.1z"/>
</svg>
